<svg xmlns="http://www.w3.org/2000/svg" id="Capa_1" width="512" height="512" enable-background="new 0 0 512.028 512.028" viewBox="0 0 512.028 512.028"><g><path fill="#FFF" d="m486.647 219.59h-42.621c-15.998-38.861-54.271-66.293-98.839-66.293s-82.841 27.432-98.839 66.293h-220.995c-13.979 0-25.353 11.373-25.353 25.353v174.55c0 13.979 11.374 25.353 25.353 25.353h21.147v13.983c0 9.864 8.025 17.889 17.889 17.889h55.222c9.864 0 17.889-8.024 17.889-17.889v-13.983h237v13.983c0 9.864 8.025 17.889 17.889 17.889h55.222c9.864 0 17.889-8.024 17.889-17.889v-13.983h21.147c13.979 0 25.353-11.373 25.353-25.353v-174.55c0-13.98-11.374-25.353-25.353-25.353zm0 15c5.708 0 10.353 4.645 10.353 10.353v35.774h-46.957c1.31-6.725 1.978-13.614 1.978-20.596 0-8.797-1.077-17.347-3.092-25.531zm-461.294 0h216.091c-2.015 8.184-3.092 16.734-3.092 25.531 0 7.044.693 13.929 2 20.596h-225.352v-35.774c0-5.708 4.645-10.353 10.353-10.353zm-10.353 94.242h137.624c6.432 0 6.727 10.283 0 10.283h-137.624zm107.5 129.997c0 1.593-1.296 2.889-2.889 2.889h-55.222c-1.593 0-2.889-1.296-2.889-2.889v-13.983h61zm328 0c0 1.593-1.296 2.889-2.889 2.889h-55.222c-1.593 0-2.889-1.296-2.889-2.889v-13.983h61zm36.147-28.984h-461.294c-5.708 0-10.353-4.645-10.353-10.353v-7.889h137.624c25.918 0 25.965-40.283 0-40.283h-53.624c-9.675 0-9.675 15 0 15h53.624c6.432 0 6.727 10.283 0 10.283h-137.624v-10.283h41c9.675 0 9.675-15 0-15h-41v-17.206h137.624c25.918 0 25.965-40.283 0-40.283h-137.624v-18.114h229.459c14.696 41.454 54.297 71.229 100.728 71.229 18.844 0 37.372-4.975 53.58-14.388 8.366-4.859.831-17.833-7.533-12.971-13.922 8.085-29.845 12.358-46.046 12.358-50.638 0-91.834-41.192-91.834-91.824s41.197-91.824 91.834-91.824 91.834 41.192 91.834 91.824c0 19.302-5.92 37.769-17.119 53.403-5.634 7.864 6.562 16.601 12.194 8.734 5.904-8.242 10.534-17.165 13.847-26.542h51.056v123.775c0 5.71-4.645 10.354-10.353 10.354z" class="active-path" data-old_color="#000000" data-original="#000000"/><path fill="#FFF" d="m47 266.218c9.652 0 9.668-15 0-15-9.652 0-9.668 15 0 15z" class="active-path" data-old_color="#000000" data-original="#000000"/><path fill="#FFF" d="m83 266.218c9.652 0 9.668-15 0-15-9.652 0-9.668 15 0 15z" class="active-path" data-old_color="#000000" data-original="#000000"/><path fill="#FFF" d="m119 266.218c9.652 0 9.668-15 0-15-9.652 0-9.668 15 0 15z" class="active-path" data-old_color="#000000" data-original="#000000"/><path fill="#FFF" d="m345.187 186.115c-40.812 0-74.014 33.199-74.014 74.007s33.203 74.007 74.014 74.007 74.014-33.199 74.014-74.007-33.203-74.007-74.014-74.007zm0 133.013c-32.541 0-59.014-26.471-59.014-59.007s26.474-59.007 59.014-59.007 59.014 26.471 59.014 59.007-26.474 59.007-59.014 59.007z" class="active-path" data-old_color="#000000" data-original="#000000"/><path fill="#FFF" d="m345.187 229.489c-9.674 0-9.674 15 0 15 8.621 0 15.635 7.013 15.635 15.633 0 9.675 15 9.675 15 0 0-16.891-13.743-30.633-30.635-30.633z" class="active-path" data-old_color="#000000" data-original="#000000"/><path fill="#FFF" d="m243.197 180.521c1.464 1.464 3.384 2.196 5.303 2.196 6.361 0 9.876-8.23 5.303-12.804l-63.5-63.5c-6.94-6.937-17.243 3.97-10.606 10.607z" class="active-path" data-old_color="#000000" data-original="#000000"/><path fill="#FFF" d="m441 182.717c1.919 0 3.839-.732 5.303-2.196l63.5-63.5c6.938-6.94-3.969-17.243-10.606-10.607l-63.5 63.5c-4.574 4.574-1.054 12.803 5.303 12.803z" class="active-path" data-old_color="#000000" data-original="#000000"/><path fill="#FFF" d="m341.75 139.869c4.142 0 7.5-3.357 7.5-7.5v-89.802c0-9.675-15-9.675-15 0v89.802c0 4.142 3.358 7.5 7.5 7.5z" class="active-path" data-old_color="#000000" data-original="#000000"/></g></svg>