<svg xmlns="http://www.w3.org/2000/svg" id="Layer_1" width="512" height="512" data-name="Layer 1" viewBox="0 0 512 512"><g><path fill="#FFF" d="m476 132.9h-109.527v-38.763c0-16.066-12.71-29.137-28.332-29.137h-164.282c-15.622 0-28.332 13.071-28.332 29.137v38.763h-109.527a26.03 26.03 0 0 0 -26 26v282.1a26.029 26.029 0 0 0 26 26h440a26.029 26.029 0 0 0 26-26v-282.1a26.03 26.03 0 0 0 -26-26zm-295.872 12h233.009v310.1h-314.274v-310.1zm145.739-12h-139.734v-23.862a4.005 4.005 0 0 1 4-4h131.734a4.005 4.005 0 0 1 4 4zm-168.34-38.763c0-9.449 7.327-17.137 16.332-17.137h164.282c9 0 16.332 7.688 16.332 17.137v38.763h-16.606v-23.862a16.019 16.019 0 0 0 -16-16h-131.734a16.019 16.019 0 0 0 -16 16v23.862h-16.606zm-135.527 346.863v-282.1a14.016 14.016 0 0 1 14-14h50.863v310.1h-50.863a14.015 14.015 0 0 1 -14-14zm468 0a14.015 14.015 0 0 1 -14 14h-50.863v-310.1h50.863a14.016 14.016 0 0 1 14 14z" class="active-path" data-old_color="#000000" data-original="#000000"/></g></svg>