<?xml version="1.0" encoding="iso-8859-1"?>
<!-- Generator: Adobe Illustrator 19.0.0, SVG Export Plug-In . SVG Version: 6.00 Build 0)  -->
<svg version="1.1" id="Layer_1" xmlns="http://www.w3.org/2000/svg" xmlns:xlink="http://www.w3.org/1999/xlink" x="0px" y="0px"
	 viewBox="0 0 505 505" style="enable-background:new 0 0 505 505;" xml:space="preserve">
<circle style="fill:#FD8469;" cx="252.5" cy="252.5" r="252.5"/>
<path style="fill:#FFD05B;" d="M356.1,440.3L71.8,361.7c-1.6-0.4-2.5-2.1-2.1-3.7l75.5-273.5c0.4-1.6,2.1-2.5,3.7-2.1l284.4,78.5
	c1.6,0.4,2.5,2.1,2.1,3.7l-75.5,273.5C359.3,439.8,357.7,440.7,356.1,440.3z"/>
<path style="fill:#FFFFFF;" d="M400,406.2H105c-1.6,0-3-1.3-3-3V119.5c0-1.6,1.3-3,3-3h295c1.6,0,3,1.3,3,3v283.8
	C403,404.9,401.6,406.2,400,406.2z"/>
<rect x="130.7" y="145.2" style="fill:#84DBFF;" width="243.6" height="189.7"/>
<polygon style="fill:#324A5E;" points="149.8,223.1 190,263.3 130.7,322.6 130.7,240.1 "/>
<polygon style="fill:#2B3B4E;" points="280.3,273.5 222.1,215.4 130.7,306.7 130.7,334.9 280.3,334.9 "/>
<polygon style="fill:#324A5E;" points="374.3,281.7 300.2,207.7 173.5,334.4 374.3,334.4 "/>
<circle style="fill:#F9B54C;" cx="259.4" cy="205.9" r="15.1"/>
<g>
	<path style="fill:#54C0EB;" d="M191.8,166.3c-0.4,0-0.8,0.1-1.2,0.1s-0.8,0.2-1.2,0.3s-0.8,0.3-1.2,0.5s-0.8,0.4-1.1,0.6
		c-0.4,0.2-0.7,0.5-1.1,0.7c-0.7,0.5-1.4,1-2,1.6s-1.2,1.2-1.8,1.8c-0.5,0.6-1.1,1.3-1.6,1.9c-0.4,0.5-0.7,1-1,1.5l-0.1-0.1
		l-0.9-0.5c-0.6-0.3-1.2-0.7-1.9-0.9l-2-0.7c-0.7-0.3-1.4-0.3-2-0.5c-0.7-0.1-1.4-0.2-2-0.3c-0.7,0-1.4-0.1-2,0
		c-0.7,0-1.3,0.1-2,0.2c-0.7,0.1-1.3,0.2-2,0.3s-1.3,0.3-1.9,0.5c-0.6,0.2-1.2,0.4-1.8,0.6c-0.6,0.2-1.2,0.5-1.8,0.8
		c-1.2,0.6-2.3,1.2-3.3,1.9s-2.1,1.5-2.9,2.4c1.2-0.3,2.4-0.6,3.6-0.8c1.2-0.2,2.4-0.5,3.5-0.6c0.6-0.1,1.2-0.2,1.7-0.2
		c0.6-0.1,1.1-0.1,1.7-0.2c0.6,0,1.1-0.1,1.7-0.1c0.6,0,1.1,0,1.7,0c0.6,0,1.1,0.1,1.6,0.1s1.1,0.2,1.6,0.2s1.1,0.2,1.6,0.3
		c0.5,0.2,1,0.2,1.5,0.4l1.5,0.5c0.5,0.2,0.9,0.5,1.4,0.7l0.7,0.3l0.6,0.4l1.3,0.9l2.8,1.9l1.2-2.8l0.4-0.9l0.5-1
		c0.3-0.7,0.6-1.3,1-2c0.3-0.7,0.7-1.3,1-1.9c0.4-0.6,0.7-1.3,1.1-1.9c0.4-0.6,0.8-1.2,1.2-1.8l0.7-0.8c0.2-0.3,0.5-0.5,0.7-0.8
		s0.5-0.5,0.8-0.8c0.3-0.2,0.5-0.5,0.9-0.7c0.3-0.2,0.6-0.4,1-0.6l1.1-0.5C192.6,166.3,192.2,166.3,191.8,166.3z"/>
	<path style="fill:#54C0EB;" d="M205.8,181.1c-0.4,0-0.8,0.1-1.2,0.1s-0.8,0.2-1.2,0.3s-0.8,0.3-1.2,0.5s-0.8,0.4-1.1,0.6
		c-0.4,0.2-0.7,0.5-1.1,0.7c-0.7,0.5-1.4,1-2,1.6s-1.2,1.2-1.8,1.8c-0.5,0.6-1.1,1.3-1.6,1.9c-0.4,0.5-0.7,1-1,1.5l-0.1-0.1
		l-0.9-0.5c-0.6-0.3-1.2-0.7-1.9-0.9l-2-0.7c-0.7-0.3-1.4-0.3-2-0.5c-0.7-0.1-1.4-0.2-2-0.3c-0.7,0-1.4-0.1-2,0
		c-0.7,0-1.3,0.1-2,0.2c-0.7,0.1-1.3,0.2-2,0.3s-1.3,0.3-1.9,0.5c-0.6,0.2-1.2,0.4-1.8,0.6c-0.6,0.2-1.2,0.5-1.8,0.8
		c-1.2,0.6-2.3,1.2-3.3,1.9s-2.1,1.5-2.9,2.4c1.2-0.3,2.4-0.6,3.6-0.8c1.2-0.2,2.4-0.5,3.5-0.6c0.6-0.1,1.2-0.2,1.7-0.2
		c0.6-0.1,1.1-0.1,1.7-0.2c0.6,0,1.1-0.1,1.7-0.1c0.6,0,1.1,0,1.7,0c0.6,0,1.1,0.1,1.6,0.1s1.1,0.2,1.6,0.2s1.1,0.2,1.6,0.3
		c0.5,0.2,1,0.2,1.5,0.4l1.5,0.5c0.5,0.2,0.9,0.5,1.4,0.7l0.7,0.3l0.6,0.4l1.3,0.9l2.8,1.9l1.2-2.8l0.4-1l0.5-1c0.3-0.7,0.6-1.3,1-2
		c0.3-0.6,0.7-1.3,1-1.9c0.4-0.6,0.7-1.3,1.1-1.9c0.4-0.6,0.8-1.2,1.2-1.8l0.7-0.8c0.2-0.3,0.5-0.5,0.7-0.8s0.5-0.5,0.8-0.8
		c0.3-0.2,0.5-0.5,0.9-0.7c0.3-0.2,0.6-0.4,1-0.6l1.1-0.5C206.7,181.2,206.3,181.1,205.8,181.1z"/>
</g>
<g>
</g>
<g>
</g>
<g>
</g>
<g>
</g>
<g>
</g>
<g>
</g>
<g>
</g>
<g>
</g>
<g>
</g>
<g>
</g>
<g>
</g>
<g>
</g>
<g>
</g>
<g>
</g>
<g>
</g>
</svg>
